<svg xmlns="http://www.w3.org/2000/svg" width="60" height="60" fill="none" viewBox="0 0 60 60">
  <path fill="#000" fill-opacity=".9" fill-rule="evenodd" d="M49.599.977c.36-.734 1.165-1.115 1.983-.931.798.19 1.36.9 1.36 1.718v16.063C56.964 18.646 60 22.21 60 26.47c0 4.26-3.035 7.829-7.059 8.647v16.06a1.764 1.764 0 0 1-3.342.79C43.1 38.975 30.13 38.823 30 38.823H17.647V56.47h2.742c-.37-2.816-.547-7.718 1.984-10.958 1.638-2.097 4.052-3.16 7.186-3.16v3.53c-2.015 0-3.456.59-4.401 1.797-2.15 2.745-1.409 8.244-.946 10.133a1.77 1.77 0 0 1-.321 1.51A1.775 1.775 0 0 1 22.5 60h-6.618a1.763 1.763 0 0 1-1.764-1.765V38.823h-1.765c-4.867 0-8.824-3.956-8.824-8.823v-1.765H1.765a1.765 1.765 0 0 1 0-3.53h1.764v-1.764c0-4.864 3.957-8.824 8.824-8.824h17.643c.53-.003 13.14-.218 19.603-13.14Zm-.187 6.826c-6.085 7.574-14.132 9.318-17.647 9.72v17.898c3.515.402 11.562 2.142 17.647 9.72V7.803Zm-21.177 9.844H12.353a5.3 5.3 0 0 0-5.294 5.294V30a5.3 5.3 0 0 0 5.294 5.294h15.882V17.647Zm24.706 3.858v9.935c2.05-.73 3.53-2.672 3.53-4.97 0-2.297-1.48-4.235-3.53-4.965Z" clip-rule="evenodd"/>
</svg>
