<?xml version="1.0" encoding="UTF-8"?><svg xmlns="http://www.w3.org/2000/svg" xmlns:xlink="http://www.w3.org/1999/xlink" fill-opacity="1" color-rendering="auto" color-interpolation="auto" text-rendering="auto" stroke="black" stroke-linecap="square" width="1451" stroke-miterlimit="10" shape-rendering="auto" stroke-opacity="1" fill="black" stroke-dasharray="none" font-weight="normal" stroke-width="1" height="1969" font-family="'Dialog'" font-style="normal" stroke-linejoin="miter" font-size="12px" stroke-dashoffset="0" image-rendering="auto">
  <!--Generated by ySVG 2.6-->
  <defs id="genericDefs"/>
  <g>
    <defs id="defs1">
      <clipPath clipPathUnits="userSpaceOnUse" id="clipPath1">
        <path d="M0 0 L1451 0 L1451 1969 L0 1969 L0 0 Z"/>
      </clipPath>
      <clipPath clipPathUnits="userSpaceOnUse" id="clipPath2">
        <path d="M-15 548 L1436 548 L1436 2517 L-15 2517 L-15 548 Z"/>
      </clipPath>
    </defs>
    <g fill="rgb(204,153,255)" text-rendering="geometricPrecision" shape-rendering="geometricPrecision" transform="matrix(1,0,0,1,15,-548)" stroke="rgb(204,153,255)">
      <circle r="31.875" clip-path="url(#clipPath2)" cx="678.7088" cy="595.0568" stroke="none"/>
    </g>
    <g text-rendering="geometricPrecision" stroke-miterlimit="1.45" shape-rendering="geometricPrecision" transform="matrix(1,0,0,1,15,-548)" stroke-linecap="butt">
      <circle fill="none" r="31.875" clip-path="url(#clipPath2)" cx="678.7088" cy="595.0568"/>
      <text x="652.3621" xml:space="preserve" y="599.7706" clip-path="url(#clipPath2)" font-family="sans-serif" stroke="none">Start here</text>
    </g>
    <g fill="white" text-rendering="geometricPrecision" shape-rendering="geometricPrecision" transform="matrix(1,0,0,1,15,-548)" stroke="white">
      <path d="M606.1085 768.2231 L678.7085 695.6224 L751.3086 768.2231 L678.7085 840.8237 Z" fill-rule="evenodd" clip-path="url(#clipPath2)" stroke="none"/>
    </g>
    <g text-rendering="geometricPrecision" stroke-miterlimit="1.45" shape-rendering="geometricPrecision" transform="matrix(1,0,0,1,15,-548)" stroke-linecap="butt">
      <path fill="none" d="M606.1085 768.2231 L678.7085 695.6224 L751.3086 768.2231 L678.7085 840.8237 Z" fill-rule="evenodd" clip-path="url(#clipPath2)"/>
      <text x="634.6873" xml:space="preserve" y="758.2344" clip-path="url(#clipPath2)" font-family="sans-serif" stroke="none">Does your game</text>
      <text x="635.6863" xml:space="preserve" y="772.9356" clip-path="url(#clipPath2)" font-family="sans-serif" stroke="none">crash on startup</text>
      <text x="625.3475" xml:space="preserve" y="787.6368" clip-path="url(#clipPath2)" font-family="sans-serif" stroke="none">with exit code of -1?</text>
    </g>
    <g fill="white" text-rendering="geometricPrecision" shape-rendering="geometricPrecision" transform="matrix(1,0,0,1,15,-548)" stroke="white">
      <path d="M538.0889 1273.0603 L610.6889 1200.4603 L683.2889 1273.0603 L610.6889 1345.6604 Z" fill-rule="evenodd" clip-path="url(#clipPath2)" stroke="none"/>
    </g>
    <g text-rendering="geometricPrecision" stroke-miterlimit="1.45" shape-rendering="geometricPrecision" transform="matrix(1,0,0,1,15,-548)" stroke-linecap="butt">
      <path fill="none" d="M538.0889 1273.0603 L610.6889 1200.4603 L683.2889 1273.0603 L610.6889 1345.6604 Z" fill-rule="evenodd" clip-path="url(#clipPath2)"/>
      <text x="577.3404" xml:space="preserve" y="1255.7224" clip-path="url(#clipPath2)" font-family="sans-serif" stroke="none">What kind of</text>
      <text x="567.3326" xml:space="preserve" y="1270.4236" clip-path="url(#clipPath2)" font-family="sans-serif" stroke="none">problem are you</text>
      <text x="575.9957" xml:space="preserve" y="1285.1248" clip-path="url(#clipPath2)" font-family="sans-serif" stroke="none">encountering</text>
      <text x="573.3355" xml:space="preserve" y="1299.8259" clip-path="url(#clipPath2)" font-family="sans-serif" stroke="none">with the mod?</text>
    </g>
    <g fill="white" text-rendering="geometricPrecision" shape-rendering="geometricPrecision" transform="matrix(1,0,0,1,15,-548)" stroke="white">
      <path d="M538.089 1511.0809 L610.689 1438.481 L683.289 1511.0809 L610.689 1583.6809 Z" fill-rule="evenodd" clip-path="url(#clipPath2)" stroke="none"/>
    </g>
    <g text-rendering="geometricPrecision" stroke-miterlimit="1.45" shape-rendering="geometricPrecision" transform="matrix(1,0,0,1,15,-548)" stroke-linecap="butt">
      <path fill="none" d="M538.089 1511.0809 L610.689 1438.481 L683.289 1511.0809 L610.689 1583.6809 Z" fill-rule="evenodd" clip-path="url(#clipPath2)"/>
      <text x="576.6724" xml:space="preserve" y="1486.3925" clip-path="url(#clipPath2)" font-family="sans-serif" stroke="none">Are you sure</text>
      <text x="572.9986" xml:space="preserve" y="1501.0936" clip-path="url(#clipPath2)" font-family="sans-serif" stroke="none">you have your</text>
      <text x="559.6656" xml:space="preserve" y="1515.7948" clip-path="url(#clipPath2)" font-family="sans-serif" stroke="none">master volume and</text>
      <text x="575.6734" xml:space="preserve" y="1530.496" clip-path="url(#clipPath2)" font-family="sans-serif" stroke="none">voice volume</text>
      <text x="581.9986" xml:space="preserve" y="1545.1971" clip-path="url(#clipPath2)" font-family="sans-serif" stroke="none">turned on?</text>
    </g>
    <g fill="white" text-rendering="geometricPrecision" shape-rendering="geometricPrecision" transform="matrix(1,0,0,1,15,-548)" stroke="white">
      <rect x="304.5453" width="145.2" height="44.125" y="1489.0185" clip-path="url(#clipPath2)" stroke="none"/>
    </g>
    <g text-rendering="geometricPrecision" stroke-miterlimit="1.45" shape-rendering="geometricPrecision" transform="matrix(1,0,0,1,15,-548)" stroke-linecap="butt">
      <rect fill="none" x="304.5453" width="145.2" height="44.125" y="1489.0185" clip-path="url(#clipPath2)"/>
      <text x="311.1073" xml:space="preserve" y="1515.7948" clip-path="url(#clipPath2)" font-family="sans-serif" stroke="none">Turn them both to 100 %</text>
    </g>
    <g fill="white" text-rendering="geometricPrecision" shape-rendering="geometricPrecision" transform="matrix(1,0,0,1,15,-548)" stroke="white">
      <path d="M678.1872 1809.9703 L750.7872 1737.3704 L823.3872 1809.9703 L750.7872 1882.5704 Z" fill-rule="evenodd" clip-path="url(#clipPath2)" stroke="none"/>
    </g>
    <g text-rendering="geometricPrecision" stroke-miterlimit="1.45" shape-rendering="geometricPrecision" transform="matrix(1,0,0,1,15,-548)" stroke-linecap="butt">
      <path fill="none" d="M678.1872 1809.9703 L750.7872 1737.3704 L823.3872 1809.9703 L750.7872 1882.5704 Z" fill-rule="evenodd" clip-path="url(#clipPath2)"/>
      <text x="708.0928" xml:space="preserve" y="1792.6324" clip-path="url(#clipPath2)" font-family="sans-serif" stroke="none">Do you hear the</text>
      <text x="711.4297" xml:space="preserve" y="1807.3336" clip-path="url(#clipPath2)" font-family="sans-serif" stroke="none">voice of Enzan</text>
      <text x="704.7589" xml:space="preserve" y="1822.0348" clip-path="url(#clipPath2)" font-family="sans-serif" stroke="none">(he stands by the</text>
      <text x="716.4307" xml:space="preserve" y="1836.736" clip-path="url(#clipPath2)" font-family="sans-serif" stroke="none">Ragni gate)?</text>
    </g>
    <g fill="white" text-rendering="geometricPrecision" shape-rendering="geometricPrecision" transform="matrix(1,0,0,1,15,-548)" stroke="white">
      <path d="M538.089 2043.6202 L610.689 1971.0201 L683.289 2043.6202 L610.689 2116.2202 Z" fill-rule="evenodd" clip-path="url(#clipPath2)" stroke="none"/>
    </g>
    <g text-rendering="geometricPrecision" stroke-miterlimit="1.45" shape-rendering="geometricPrecision" transform="matrix(1,0,0,1,15,-548)" stroke-linecap="butt">
      <path fill="none" d="M538.089 2043.6202 L610.689 1971.0201 L683.289 2043.6202 L610.689 2116.2202 Z" fill-rule="evenodd" clip-path="url(#clipPath2)"/>
      <text x="576.0045" xml:space="preserve" y="2026.2823" clip-path="url(#clipPath2)" font-family="sans-serif" stroke="none">Did the issue</text>
      <text x="570.6636" xml:space="preserve" y="2040.9835" clip-path="url(#clipPath2)" font-family="sans-serif" stroke="none">disappear after</text>
      <text x="558.6607" xml:space="preserve" y="2055.6846" clip-path="url(#clipPath2)" font-family="sans-serif" stroke="none">reinstalling the mod</text>
      <text x="563.0025" xml:space="preserve" y="2070.3857" clip-path="url(#clipPath2)" font-family="sans-serif" stroke="none">from our website?</text>
    </g>
    <g fill="rgb(204,255,204)" text-rendering="geometricPrecision" shape-rendering="geometricPrecision" transform="matrix(1,0,0,1,15,-548)" stroke="rgb(204,255,204)">
      <rect x="274.1407" width="255.0125" height="114" y="1826.9577" clip-path="url(#clipPath2)" stroke="none"/>
    </g>
    <g text-rendering="geometricPrecision" stroke-miterlimit="1.45" shape-rendering="geometricPrecision" transform="matrix(1,0,0,1,15,-548)" stroke-linecap="butt">
      <rect fill="none" x="274.1407" width="255.0125" height="114" y="1826.9577" clip-path="url(#clipPath2)"/>
      <text x="353.2924" xml:space="preserve" y="1888.6715" clip-path="url(#clipPath2)" font-family="sans-serif" stroke="none">Problem resolved.</text>
    </g>
    <g fill="white" text-rendering="geometricPrecision" shape-rendering="geometricPrecision" transform="matrix(1,0,0,1,15,-548)" stroke="white">
      <path d="M151.6347 972.5989 L224.2353 899.9989 L296.8354 972.5989 L224.2353 1045.1989 Z" fill-rule="evenodd" clip-path="url(#clipPath2)" stroke="none"/>
    </g>
    <g text-rendering="geometricPrecision" stroke-miterlimit="1.45" shape-rendering="geometricPrecision" transform="matrix(1,0,0,1,15,-548)" stroke-linecap="butt">
      <path fill="none" d="M151.6347 972.5989 L224.2353 899.9989 L296.8354 972.5989 L224.2353 1045.1989 Z" fill-rule="evenodd" clip-path="url(#clipPath2)"/>
      <text x="179.8854" xml:space="preserve" y="962.6095" clip-path="url(#clipPath2)" font-family="sans-serif" stroke="none">Which version of</text>
      <text x="182.5514" xml:space="preserve" y="977.3107" clip-path="url(#clipPath2)" font-family="sans-serif" stroke="none">Voices of Wynn</text>
      <text x="184.8747" xml:space="preserve" y="992.0118" clip-path="url(#clipPath2)" font-family="sans-serif" stroke="none">are you using?</text>
    </g>
    <g fill="white" text-rendering="geometricPrecision" shape-rendering="geometricPrecision" transform="matrix(1,0,0,1,15,-548)" stroke="white">
      <path d="M631.4771 972.5981 L704.0771 899.9984 L776.6771 972.5981 L704.0771 1045.198 Z" fill-rule="evenodd" clip-path="url(#clipPath2)" stroke="none"/>
    </g>
    <g text-rendering="geometricPrecision" stroke-miterlimit="1.45" shape-rendering="geometricPrecision" transform="matrix(1,0,0,1,15,-548)" stroke-linecap="butt">
      <path fill="none" d="M631.4771 972.5981 L704.0771 899.9984 L776.6771 972.5981 L704.0771 1045.198 Z" fill-rule="evenodd" clip-path="url(#clipPath2)"/>
      <text x="670.3889" xml:space="preserve" y="947.9083" clip-path="url(#clipPath2)" font-family="sans-serif" stroke="none">Do you have</text>
      <text x="655.383" xml:space="preserve" y="962.6095" clip-path="url(#clipPath2)" font-family="sans-serif" stroke="none">the Fabric Api and</text>
      <text x="659.7219" xml:space="preserve" y="977.3107" clip-path="url(#clipPath2)" font-family="sans-serif" stroke="none">Cloth Config API</text>
      <text x="666.7121" xml:space="preserve" y="992.0118" clip-path="url(#clipPath2)" font-family="sans-serif" stroke="none">dependencies</text>
      <text x="678.7267" xml:space="preserve" y="1006.713" clip-path="url(#clipPath2)" font-family="sans-serif" stroke="none">installed?</text>
    </g>
    <g fill="white" text-rendering="geometricPrecision" shape-rendering="geometricPrecision" transform="matrix(1,0,0,1,15,-548)" stroke="white">
      <rect x="841.6671" width="223.4197" height="95.7981" y="924.6978" clip-path="url(#clipPath2)" stroke="none"/>
    </g>
    <g text-rendering="geometricPrecision" stroke-miterlimit="1.45" shape-rendering="geometricPrecision" transform="matrix(1,0,0,1,15,-548)" stroke-linecap="butt">
      <rect fill="none" x="841.6671" width="223.4197" height="95.7981" y="924.6978" clip-path="url(#clipPath2)"/>
      <text x="885.3525" xml:space="preserve" y="940.5577" clip-path="url(#clipPath2)" font-family="sans-serif" stroke="none">Install them from the links</text>
      <text x="883.6562" xml:space="preserve" y="955.2589" clip-path="url(#clipPath2)" font-family="sans-serif" stroke="none">found below the download</text>
      <text x="894.0039" xml:space="preserve" y="969.9601" clip-path="url(#clipPath2)" font-family="sans-serif" stroke="none">buttons in the red box.</text>
      <text x="951.71" xml:space="preserve" y="984.6613" clip-path="url(#clipPath2)" font-family="sans-serif" stroke="none"> </text>
      <text x="871" xml:space="preserve" y="999.3624" clip-path="url(#clipPath2)" font-family="sans-serif" stroke="none">(For example on this webpage:</text>
      <text x="845.6553" xml:space="preserve" y="1014.0636" clip-path="url(#clipPath2)" font-family="sans-serif" stroke="none">https://voicesofwynn.com/downloads/42)</text>
    </g>
    <g fill="rgb(255,255,153)" text-rendering="geometricPrecision" shape-rendering="geometricPrecision" transform="matrix(1,0,0,1,15,-548)" stroke="rgb(255,255,153)">
      <rect x="944.761" width="255.0125" height="114" y="1752.9704" clip-path="url(#clipPath2)" stroke="none"/>
    </g>
    <g text-rendering="geometricPrecision" stroke-miterlimit="1.45" shape-rendering="geometricPrecision" transform="matrix(1,0,0,1,15,-548)" stroke-linecap="butt">
      <rect fill="none" x="944.761" width="255.0125" height="114" y="1752.9704" clip-path="url(#clipPath2)"/>
      <text x="997.2379" xml:space="preserve" y="1777.9313" clip-path="url(#clipPath2)" font-family="sans-serif" stroke="none">Not all NPCs are voiced yet.</text>
      <text x="971.4039" xml:space="preserve" y="1792.6324" clip-path="url(#clipPath2)" font-family="sans-serif" stroke="none">You're probably talking to such NPCs.</text>
      <text x="1070.6002" xml:space="preserve" y="1807.3336" clip-path="url(#clipPath2)" font-family="sans-serif" stroke="none"> </text>
      <text x="958.8619" xml:space="preserve" y="1822.0348" clip-path="url(#clipPath2)" font-family="sans-serif" stroke="none">Make sure you have line reporting enabled</text>
      <text x="967.8707" xml:space="preserve" y="1836.736" clip-path="url(#clipPath2)" font-family="sans-serif" stroke="none">and perhaps join our Discord to help us</text>
      <text x="1002.9069" xml:space="preserve" y="1851.4371" clip-path="url(#clipPath2)" font-family="sans-serif" stroke="none">voice the voiceless NPCs.</text>
    </g>
    <g fill="white" text-rendering="geometricPrecision" shape-rendering="geometricPrecision" transform="matrix(1,0,0,1,15,-548)" stroke="white">
      <path d="M403.0191 972.5961 L475.6191 899.9961 L548.2192 972.5961 L475.6191 1045.196 Z" fill-rule="evenodd" clip-path="url(#clipPath2)" stroke="none"/>
    </g>
    <g text-rendering="geometricPrecision" stroke-miterlimit="1.45" shape-rendering="geometricPrecision" transform="matrix(1,0,0,1,15,-548)" stroke-linecap="butt">
      <path fill="none" d="M403.0191 972.5961 L475.6191 899.9961 L548.2192 972.5961 L475.6191 1045.196 Z" fill-rule="evenodd" clip-path="url(#clipPath2)"/>
      <text x="438.9309" xml:space="preserve" y="955.2589" clip-path="url(#clipPath2)" font-family="sans-serif" stroke="none">Are you using</text>
      <text x="433.9358" xml:space="preserve" y="969.9601" clip-path="url(#clipPath2)" font-family="sans-serif" stroke="none">Voices of Wynn</text>
      <text x="446.2697" xml:space="preserve" y="984.6613" clip-path="url(#clipPath2)" font-family="sans-serif" stroke="none">version 1.4</text>
      <text x="448.9387" xml:space="preserve" y="999.3624" clip-path="url(#clipPath2)" font-family="sans-serif" stroke="none">or newer?</text>
    </g>
    <g fill="white" text-rendering="geometricPrecision" shape-rendering="geometricPrecision" transform="matrix(1,0,0,1,15,-548)" stroke="white">
      <path d="M304.5453 1672.7988 L377.1454 1600.1987 L449.7453 1672.7988 L377.1454 1745.3988 Z" fill-rule="evenodd" clip-path="url(#clipPath2)" stroke="none"/>
    </g>
    <g text-rendering="geometricPrecision" stroke-miterlimit="1.45" shape-rendering="geometricPrecision" transform="matrix(1,0,0,1,15,-548)" stroke-linecap="butt">
      <path fill="none" d="M304.5453 1672.7988 L377.1454 1600.1987 L449.7453 1672.7988 L377.1454 1745.3988 Z" fill-rule="evenodd" clip-path="url(#clipPath2)"/>
      <text x="344.4588" xml:space="preserve" y="1662.8115" clip-path="url(#clipPath2)" font-family="sans-serif" stroke="none">Do you hear</text>
      <text x="341.6581" xml:space="preserve" y="1677.5127" clip-path="url(#clipPath2)" font-family="sans-serif" stroke="none">NPC's voices</text>
      <text x="362.8016" xml:space="preserve" y="1692.2139" clip-path="url(#clipPath2)" font-family="sans-serif" stroke="none">now?</text>
    </g>
    <g fill="rgb(255,204,153)" text-rendering="geometricPrecision" shape-rendering="geometricPrecision" transform="matrix(1,0,0,1,15,-548)" stroke="rgb(255,204,153)">
      <rect x="1074.3572" width="255.0125" height="114" y="2371.4799" clip-path="url(#clipPath2)" stroke="none"/>
    </g>
    <g text-rendering="geometricPrecision" stroke-miterlimit="1.45" shape-rendering="geometricPrecision" transform="matrix(1,0,0,1,15,-548)" stroke-linecap="butt">
      <rect fill="none" x="1074.3572" width="255.0125" height="114" y="2371.4799" clip-path="url(#clipPath2)"/>
      <text x="1079.1243" xml:space="preserve" y="2403.7915" clip-path="url(#clipPath2)" font-family="sans-serif" stroke="none">Congratulations! You found a non-trivial issue.</text>
      <text x="1200.1965" xml:space="preserve" y="2418.4927" clip-path="url(#clipPath2)" font-family="sans-serif" stroke="none"> </text>
      <text x="1090.1428" xml:space="preserve" y="2433.1938" clip-path="url(#clipPath2)" font-family="sans-serif" stroke="none">Please, join our Discord server and create</text>
      <text x="1080.5364" xml:space="preserve" y="2447.895" clip-path="url(#clipPath2)" font-family="sans-serif" stroke="none">a topic in the "&#128587;issues-and-support" channel.</text>
      <text x="1086.6711" xml:space="preserve" y="2462.5962" clip-path="url(#clipPath2)" font-family="sans-serif" stroke="none">We'll try to resolve the issue with you there.</text>
    </g>
    <g fill="white" text-rendering="geometricPrecision" shape-rendering="geometricPrecision" transform="matrix(1,0,0,1,15,-548)" stroke="white">
      <path d="M795.9158 2195.5637 L868.5158 2122.9639 L941.1158 2195.5637 L868.5158 2268.1638 Z" fill-rule="evenodd" clip-path="url(#clipPath2)" stroke="none"/>
    </g>
    <g text-rendering="geometricPrecision" stroke-miterlimit="1.45" shape-rendering="geometricPrecision" transform="matrix(1,0,0,1,15,-548)" stroke-linecap="butt">
      <path fill="none" d="M795.9158 2195.5637 L868.5158 2122.9639 L941.1158 2195.5637 L868.5158 2268.1638 Z" fill-rule="evenodd" clip-path="url(#clipPath2)"/>
      <text x="834.4992" xml:space="preserve" y="2170.8752" clip-path="url(#clipPath2)" font-family="sans-serif" stroke="none">Are you sure</text>
      <text x="838.8264" xml:space="preserve" y="2185.5764" clip-path="url(#clipPath2)" font-family="sans-serif" stroke="none">you put the</text>
      <text x="837.8332" xml:space="preserve" y="2200.2776" clip-path="url(#clipPath2)" font-family="sans-serif" stroke="none">modfile into</text>
      <text x="840.1711" xml:space="preserve" y="2214.9788" clip-path="url(#clipPath2)" font-family="sans-serif" stroke="none">the correct</text>
      <text x="850.1701" xml:space="preserve" y="2229.6799" clip-path="url(#clipPath2)" font-family="sans-serif" stroke="none">folder?</text>
    </g>
    <g fill="white" text-rendering="geometricPrecision" shape-rendering="geometricPrecision" transform="matrix(1,0,0,1,15,-548)" stroke="white">
      <path d="M795.9158 2428.48 L868.5158 2355.8799 L941.1158 2428.48 L868.5158 2501.0798 Z" fill-rule="evenodd" clip-path="url(#clipPath2)" stroke="none"/>
    </g>
    <g text-rendering="geometricPrecision" stroke-miterlimit="1.45" shape-rendering="geometricPrecision" transform="matrix(1,0,0,1,15,-548)" stroke-linecap="butt">
      <path fill="none" d="M795.9158 2428.48 L868.5158 2355.8799 L941.1158 2428.48 L868.5158 2501.0798 Z" fill-rule="evenodd" clip-path="url(#clipPath2)"/>
      <text x="847.8381" xml:space="preserve" y="2403.7915" clip-path="url(#clipPath2)" font-family="sans-serif" stroke="none">Are you</text>
      <text x="838.1672" xml:space="preserve" y="2418.4927" clip-path="url(#clipPath2)" font-family="sans-serif" stroke="none">really using</text>
      <text x="819.1623" xml:space="preserve" y="2433.1938" clip-path="url(#clipPath2)" font-family="sans-serif" stroke="none">the correct version</text>
      <text x="825.4933" xml:space="preserve" y="2447.895" clip-path="url(#clipPath2)" font-family="sans-serif" stroke="none">of Minecraft and</text>
      <text x="834.5051" xml:space="preserve" y="2462.5962" clip-path="url(#clipPath2)" font-family="sans-serif" stroke="none">Forge/Fabric</text>
    </g>
    <g fill="white" text-rendering="geometricPrecision" shape-rendering="geometricPrecision" transform="matrix(1,0,0,1,15,-548)" stroke="white">
      <path d="M1054.5735 1386.7019 L1127.1735 1314.1019 L1199.7734 1386.7019 L1127.1735 1459.3019 Z" fill-rule="evenodd" clip-path="url(#clipPath2)" stroke="none"/>
    </g>
    <g text-rendering="geometricPrecision" stroke-miterlimit="1.45" shape-rendering="geometricPrecision" transform="matrix(1,0,0,1,15,-548)" stroke-linecap="butt">
      <path fill="none" d="M1054.5735 1386.7019 L1127.1735 1314.1019 L1199.7734 1386.7019 L1127.1735 1459.3019 Z" fill-rule="evenodd" clip-path="url(#clipPath2)"/>
      <text x="1084.819" xml:space="preserve" y="1376.7146" clip-path="url(#clipPath2)" font-family="sans-serif" stroke="none">Are you viewing</text>
      <text x="1092.1608" xml:space="preserve" y="1391.4158" clip-path="url(#clipPath2)" font-family="sans-serif" stroke="none">this flowchart</text>
      <text x="1084.8131" xml:space="preserve" y="1406.1169" clip-path="url(#clipPath2)" font-family="sans-serif" stroke="none">on our website?</text>
    </g>
    <g fill="white" text-rendering="geometricPrecision" shape-rendering="geometricPrecision" transform="matrix(1,0,0,1,15,-548)" stroke="white">
      <rect x="815.876" width="238.6975" height="189.032" y="1438.481" clip-path="url(#clipPath2)" stroke="none"/>
    </g>
    <g text-rendering="geometricPrecision" stroke-miterlimit="1.45" shape-rendering="geometricPrecision" transform="matrix(1,0,0,1,15,-548)" stroke-linecap="butt">
      <rect fill="none" x="815.876" width="238.6975" height="189.032" y="1438.481" clip-path="url(#clipPath2)"/>
      <text x="875.5323" xml:space="preserve" y="1471.5555" clip-path="url(#clipPath2)" font-family="sans-serif" stroke="none">We sometimes update</text>
      <text x="865.1788" xml:space="preserve" y="1486.2567" clip-path="url(#clipPath2)" font-family="sans-serif" stroke="none">the flowchart and add new</text>
      <text x="860.8517" xml:space="preserve" y="1500.9579" clip-path="url(#clipPath2)" font-family="sans-serif" stroke="none">branches for newly reported</text>
      <text x="908.881" xml:space="preserve" y="1515.6591" clip-path="url(#clipPath2)" font-family="sans-serif" stroke="none">problems.</text>
      <text x="933.5577" xml:space="preserve" y="1530.3602" clip-path="url(#clipPath2)" font-family="sans-serif" stroke="none"> </text>
      <text x="859.047" xml:space="preserve" y="1545.0614" clip-path="url(#clipPath2)" font-family="sans-serif" stroke="none">To make sure you're viewing</text>
      <text x="868.5187" xml:space="preserve" y="1559.7626" clip-path="url(#clipPath2)" font-family="sans-serif" stroke="none">the newest version, go to</text>
      <text x="825.4991" xml:space="preserve" y="1574.4637" clip-path="url(#clipPath2)" font-family="sans-serif" stroke="none">https://voicesofwynn.com/troubleshooting</text>
      <text x="836.9982" xml:space="preserve" y="1589.1649" clip-path="url(#clipPath2)" font-family="sans-serif" stroke="none">and reload the webpage with Ctrl+F5</text>
      <text x="896.2042" xml:space="preserve" y="1603.8661" clip-path="url(#clipPath2)" font-family="sans-serif" stroke="none">to clear cache.</text>
    </g>
    <g fill="silver" text-rendering="geometricPrecision" shape-rendering="geometricPrecision" transform="matrix(1,0,0,1,15,-548)" stroke="silver">
      <rect x="1145.5177" width="255.0125" height="114" y="1475.9969" clip-path="url(#clipPath2)" stroke="none"/>
    </g>
    <g text-rendering="geometricPrecision" stroke-miterlimit="1.45" shape-rendering="geometricPrecision" transform="matrix(1,0,0,1,15,-548)" stroke-linecap="butt">
      <rect fill="none" x="1145.5177" width="255.0125" height="114" y="1475.9969" clip-path="url(#clipPath2)"/>
      <text x="1173.9595" xml:space="preserve" y="1523.0096" clip-path="url(#clipPath2)" font-family="sans-serif" stroke="none">Go through the flowchard again here:</text>
      <text x="1271.3569" xml:space="preserve" y="1537.7108" clip-path="url(#clipPath2)" font-family="sans-serif" stroke="none"> </text>
      <text x="1163.2983" xml:space="preserve" y="1552.412" clip-path="url(#clipPath2)" font-family="sans-serif" stroke="none">https://voicesofwynn.com/troubleshooting</text>
    </g>
    <g fill="rgb(153,153,255)" text-rendering="geometricPrecision" shape-rendering="geometricPrecision" transform="matrix(1,0,0,1,15,-548)" stroke="rgb(153,153,255)">
      <rect x="1136.9304" width="222.0564" height="44.125" y="2058.1955" clip-path="url(#clipPath2)" stroke="none"/>
    </g>
    <g text-rendering="geometricPrecision" stroke-miterlimit="1.45" shape-rendering="geometricPrecision" transform="matrix(1,0,0,1,15,-548)" stroke-linecap="butt">
      <rect fill="none" x="1136.9304" width="222.0564" height="44.125" y="2058.1955" clip-path="url(#clipPath2)"/>
      <text x="1202.9409" xml:space="preserve" y="2077.6213" clip-path="url(#clipPath2)" font-family="sans-serif" stroke="none">Join our Discord:</text>
      <text x="1163.9116" xml:space="preserve" y="2092.3225" clip-path="url(#clipPath2)" font-family="sans-serif" stroke="none">https://discord.gg/kuEK3XH4Y5</text>
    </g>
    <g text-rendering="geometricPrecision" stroke-miterlimit="1.45" shape-rendering="geometricPrecision" transform="matrix(1,0,0,1,15,-548)" stroke-linecap="butt">
      <path fill="none" d="M678.7088 626.9318 L678.7088 684.6105" clip-path="url(#clipPath2)"/>
      <path d="M678.7088 695.6105 L684.7088 683.6105 L672.7088 683.6105 Z" clip-path="url(#clipPath2)" stroke="none"/>
    </g>
    <g text-rendering="geometricPrecision" stroke-miterlimit="1.45" shape-rendering="geometricPrecision" transform="matrix(1,0,0,1,15,-548)" stroke-linecap="butt">
      <path fill="none" d="M751.2834 768.2217 L1075.0868 768.2217 L1079.4618 768.8467 L1082.5868 770.7217 L1084.4618 773.8467 L1085.0868 778.2217 L1085.0868 1163.8784 L1084.4618 1168.2534 L1082.5868 1171.3784 L1079.4618 1173.2534 L1075.0868 1173.8784 L620.689 1173.8784 L616.314 1174.3646 L613.189 1175.8232 L611.314 1178.2542 L610.689 1181.6575 L610.689 1189.4366" clip-path="url(#clipPath2)"/>
      <path d="M610.689 1200.4366 L616.689 1188.4366 L604.689 1188.4366 Z" clip-path="url(#clipPath2)" stroke="none"/>
      <text x="758.3088" font-size="24px" y="747.6495" clip-path="url(#clipPath2)" font-family="sans-serif" stroke="none" xml:space="preserve">No</text>
    </g>
    <g text-rendering="geometricPrecision" stroke-miterlimit="1.45" shape-rendering="geometricPrecision" transform="matrix(1,0,0,1,15,-548)" stroke-linecap="butt">
      <path fill="none" d="M610.689 1345.6509 L610.689 1427.494" clip-path="url(#clipPath2)"/>
      <path d="M610.689 1438.494 L616.689 1426.494 L604.689 1426.494 Z" clip-path="url(#clipPath2)" stroke="none"/>
      <text x="464.3116" font-size="24px" y="1368.5839" clip-path="url(#clipPath2)" font-family="sans-serif" stroke="none" xml:space="preserve">I don't hear</text>
      <text x="453.003" font-size="24px" y="1397.9862" clip-path="url(#clipPath2)" font-family="sans-serif" stroke="none" xml:space="preserve">NPCs' voices</text>
    </g>
    <g text-rendering="geometricPrecision" stroke-miterlimit="1.45" shape-rendering="geometricPrecision" transform="matrix(1,0,0,1,15,-548)" stroke-linecap="butt">
      <path fill="none" d="M538.0908 1511.0809 L460.7154 1511.0809" clip-path="url(#clipPath2)"/>
      <path d="M449.7154 1511.0809 L461.7154 1517.0809 L461.7154 1505.0809 Z" clip-path="url(#clipPath2)" stroke="none"/>
      <text x="500.4093" font-size="24px" y="1490.5087" clip-path="url(#clipPath2)" font-family="sans-serif" stroke="none" xml:space="preserve">No</text>
    </g>
    <g text-rendering="geometricPrecision" stroke-miterlimit="1.45" shape-rendering="geometricPrecision" transform="matrix(1,0,0,1,15,-548)" stroke-linecap="butt">
      <path fill="none" d="M683.3033 1511.0809 L740.7872 1511.0809 L745.1622 1511.7059 L748.2872 1513.5809 L750.1622 1516.7059 L750.7872 1521.0809 L750.7872 1726.4006" clip-path="url(#clipPath2)"/>
      <path d="M750.7872 1737.4006 L756.7872 1725.4006 L744.7872 1725.4006 Z" clip-path="url(#clipPath2)" stroke="none"/>
      <text x="690.289" font-size="24px" y="1490.5087" clip-path="url(#clipPath2)" font-family="sans-serif" stroke="none" xml:space="preserve">Yes</text>
    </g>
    <g text-rendering="geometricPrecision" stroke-miterlimit="1.45" shape-rendering="geometricPrecision" transform="matrix(1,0,0,1,15,-548)" stroke-linecap="butt">
      <path fill="none" d="M678.1729 1809.9703 L620.689 1809.9703 L616.314 1810.5953 L613.189 1812.4703 L611.314 1815.5953 L610.689 1819.9703 L610.689 1960.0325" clip-path="url(#clipPath2)"/>
      <path d="M610.689 1971.0325 L616.689 1959.0325 L604.689 1959.0325 Z" clip-path="url(#clipPath2)" stroke="none"/>
      <text x="640.5075" font-size="24px" y="1789.3981" clip-path="url(#clipPath2)" font-family="sans-serif" stroke="none" xml:space="preserve">No</text>
    </g>
    <g text-rendering="geometricPrecision" stroke-miterlimit="1.45" shape-rendering="geometricPrecision" transform="matrix(1,0,0,1,15,-548)" stroke-linecap="butt">
      <path fill="none" d="M538.1175 1273.0603 L10 1273.0603 L5.625 1273.6853 L2.5 1275.5603 L0.625 1278.6853 L0 1283.0603 L0 2185.5637 L0.625 2189.9387 L2.5 2193.0637 L5.625 2194.9387 L10 2195.5637 L600.689 2195.5637 L605.064 2194.9387 L608.189 2193.0637 L610.064 2189.9387 L610.689 2185.5637 L610.689 2127.2581" clip-path="url(#clipPath2)"/>
      <path d="M610.689 2116.2581 L604.689 2128.2581 L616.689 2128.2581 Z" clip-path="url(#clipPath2)" stroke="none"/>
      <text x="247.6945" font-size="24px" y="1226.5369" clip-path="url(#clipPath2)" font-family="sans-serif" stroke="none" xml:space="preserve">I don't see Voices of Wynn</text>
      <text x="261.9972" font-size="24px" y="1255.9392" clip-path="url(#clipPath2)" font-family="sans-serif" stroke="none" xml:space="preserve">in the installed mods list</text>
    </g>
    <g text-rendering="geometricPrecision" stroke-miterlimit="1.45" shape-rendering="geometricPrecision" transform="matrix(1,0,0,1,15,-548)" stroke-linecap="butt">
      <path fill="none" d="M538.0908 2043.6202 L411.6469 2043.6202 L407.2719 2042.9952 L404.1469 2041.1202 L402.2719 2037.9952 L401.6469 2033.6202 L401.6469 1951.9576" clip-path="url(#clipPath2)"/>
      <path d="M401.6469 1940.9576 L395.6469 1952.9576 L407.6469 1952.9576 Z" clip-path="url(#clipPath2)" stroke="none"/>
      <text x="489.7335" font-size="24px" y="2023.048" clip-path="url(#clipPath2)" font-family="sans-serif" stroke="none" xml:space="preserve">Yes</text>
    </g>
    <g text-rendering="geometricPrecision" stroke-miterlimit="1.45" shape-rendering="geometricPrecision" transform="matrix(1,0,0,1,15,-548)" stroke-linecap="butt">
      <path fill="none" d="M606.1306 768.2217 L234.235 768.2217 L229.86 768.8467 L226.735 770.7217 L224.86 773.8467 L224.235 778.2217 L224.235 888.9588" clip-path="url(#clipPath2)"/>
      <path d="M224.235 899.9588 L230.235 887.9588 L218.235 887.9588 Z" clip-path="url(#clipPath2)" stroke="none"/>
      <text x="557.7534" font-size="24px" y="747.6495" clip-path="url(#clipPath2)" font-family="sans-serif" stroke="none" xml:space="preserve">Yes</text>
    </g>
    <g text-rendering="geometricPrecision" stroke-miterlimit="1.45" shape-rendering="geometricPrecision" transform="matrix(1,0,0,1,15,-548)" stroke-linecap="butt">
      <path fill="none" d="M151.616 972.5968 L10 972.5968 L5.625 973.2218 L2.5 975.0968 L0.625 978.2218 L0 982.5968 L0 2185.5637 L0.625 2189.9387 L2.5 2193.0637 L5.625 2194.9387 L10 2195.5637 L600.689 2195.5637 L605.064 2194.9387 L608.189 2193.0637 L610.064 2189.9387 L610.689 2185.5637 L610.689 2127.179" clip-path="url(#clipPath2)"/>
      <path d="M610.689 2116.179 L604.689 2128.179 L616.689 2128.179 Z" clip-path="url(#clipPath2)" stroke="none"/>
      <text x="81.9397" font-size="24px" y="952.0245" clip-path="url(#clipPath2)" font-family="sans-serif" stroke="none" xml:space="preserve">Forge</text>
    </g>
    <g text-rendering="geometricPrecision" stroke-miterlimit="1.45" shape-rendering="geometricPrecision" transform="matrix(1,0,0,1,15,-548)" stroke-linecap="butt">
      <path fill="none" d="M704.0773 1045.1716 L704.0773 1131.5944 L703.4617 1136.0774 L701.615 1139.5267 L698.537 1141.9421 L694.228 1143.3237 L687.2977 1144.5404 L667.4484 1146.2698 L10 1146.2698 L5.625 1146.8948 L2.5 1148.7698 L0.625 1151.8948 L0 1156.2698 L0 2185.5637 L0.625 2189.9387 L2.5 2193.0637 L5.625 2194.9387 L10 2195.5637 L600.689 2195.5637 L605.064 2194.9387 L608.189 2193.0637 L610.064 2189.9387 L610.689 2185.5637 L610.689 2127.2163" clip-path="url(#clipPath2)"/>
      <path d="M610.689 2116.2163 L604.689 2128.2163 L616.689 2128.2163 Z" clip-path="url(#clipPath2)" stroke="none"/>
      <text x="654.3275" font-size="24px" y="1076.3257" clip-path="url(#clipPath2)" font-family="sans-serif" stroke="none" xml:space="preserve">Yes</text>
    </g>
    <g text-rendering="geometricPrecision" stroke-miterlimit="1.45" shape-rendering="geometricPrecision" transform="matrix(1,0,0,1,15,-548)" stroke-linecap="butt">
      <path fill="none" d="M776.6578 972.5968 L830.6671 972.5968" clip-path="url(#clipPath2)"/>
      <path d="M841.6671 972.5968 L829.6671 966.5968 L829.6671 978.5968 Z" clip-path="url(#clipPath2)" stroke="none"/>
      <text x="783.6773" font-size="24px" y="952.0245" clip-path="url(#clipPath2)" font-family="sans-serif" stroke="none" xml:space="preserve">No</text>
    </g>
    <g text-rendering="geometricPrecision" stroke-miterlimit="1.45" shape-rendering="geometricPrecision" transform="matrix(1,0,0,1,15,-548)" stroke-linecap="butt">
      <path fill="none" d="M953.377 924.6978 L953.377 882.469 L952.752 878.094 L950.877 874.969 L947.752 873.094 L943.377 872.469 L688.7088 872.469 L684.3338 871.844 L681.2088 869.969 L679.3338 866.844 L678.7088 862.469 L678.7088 851.8334" clip-path="url(#clipPath2)"/>
      <path d="M678.7088 840.8334 L672.7088 852.8334 L684.7088 852.8334 Z" clip-path="url(#clipPath2)" stroke="none"/>
    </g>
    <g text-rendering="geometricPrecision" stroke-miterlimit="1.45" shape-rendering="geometricPrecision" transform="matrix(1,0,0,1,15,-548)" stroke-linecap="butt">
      <path fill="none" d="M823.4263 1809.9703 L933.761 1809.9703" clip-path="url(#clipPath2)"/>
      <path d="M944.761 1809.9703 L932.761 1803.9703 L932.761 1815.9703 Z" clip-path="url(#clipPath2)" stroke="none"/>
      <text x="830.3872" font-size="24px" y="1789.3981" clip-path="url(#clipPath2)" font-family="sans-serif" stroke="none" xml:space="preserve">Yes</text>
    </g>
    <g text-rendering="geometricPrecision" stroke-miterlimit="1.45" shape-rendering="geometricPrecision" transform="matrix(1,0,0,1,15,-548)" stroke-linecap="butt">
      <path fill="none" d="M296.814 972.5968 L392.0526 972.5968" clip-path="url(#clipPath2)"/>
      <path d="M403.0526 972.5968 L391.0526 966.5968 L391.0526 978.5968 Z" clip-path="url(#clipPath2)" stroke="none"/>
      <text x="303.835" font-size="24px" y="951.5742" clip-path="url(#clipPath2)" font-family="sans-serif" stroke="none" xml:space="preserve">Fabric</text>
    </g>
    <g text-rendering="geometricPrecision" stroke-miterlimit="1.45" shape-rendering="geometricPrecision" transform="matrix(1,0,0,1,15,-548)" stroke-linecap="butt">
      <path fill="none" d="M548.2117 972.5968 L620.51 972.5968" clip-path="url(#clipPath2)"/>
      <path d="M631.51 972.5968 L619.51 966.5968 L619.51 978.5968 Z" clip-path="url(#clipPath2)" stroke="none"/>
      <text x="555.2194" font-size="24px" y="963.0046" clip-path="url(#clipPath2)" font-family="sans-serif" stroke="none" xml:space="preserve">Yes</text>
    </g>
    <g text-rendering="geometricPrecision" stroke-miterlimit="1.45" shape-rendering="geometricPrecision" transform="matrix(1,0,0,1,15,-548)" stroke-linecap="butt">
      <path fill="none" d="M475.6194 1045.1937 L475.6194 1096.2404 L474.9944 1100.6154 L473.1194 1103.7404 L469.9944 1105.6154 L465.6194 1106.2404 L10 1106.2404 L5.625 1106.8654 L2.5 1108.7404 L0.625 1111.8654 L0 1116.2404 L0 2185.5637 L0.625 2189.9387 L2.5 2193.0637 L5.625 2194.9387 L10 2195.5637 L600.689 2195.5637 L605.0681 2194.9387 L608.205 2193.0637 L610.1 2189.939 L610.7531 2185.564 L611.1299 2126.7061" clip-path="url(#clipPath2)"/>
      <path d="M611.2004 2115.7063 L605.1237 2127.6677 L617.1234 2127.7444 Z" clip-path="url(#clipPath2)" stroke="none"/>
      <text x="435.5677" font-size="24px" y="1076.3257" clip-path="url(#clipPath2)" font-family="sans-serif" stroke="none" xml:space="preserve">No</text>
    </g>
    <g text-rendering="geometricPrecision" stroke-miterlimit="1.45" shape-rendering="geometricPrecision" transform="matrix(1,0,0,1,15,-548)" stroke-linecap="butt">
      <path fill="none" d="M377.1454 1533.1434 L377.1454 1589.2094" clip-path="url(#clipPath2)"/>
      <path d="M377.1454 1600.2094 L383.1454 1588.2094 L371.1454 1588.2094 Z" clip-path="url(#clipPath2)" stroke="none"/>
    </g>
    <g text-rendering="geometricPrecision" stroke-miterlimit="1.45" shape-rendering="geometricPrecision" transform="matrix(1,0,0,1,15,-548)" stroke-linecap="butt">
      <path fill="none" d="M449.7118 1672.7988 L740.7872 1672.7988 L745.1622 1673.4238 L748.2872 1675.2988 L750.1622 1678.4238 L750.7872 1682.7988 L750.7872 1726.361" clip-path="url(#clipPath2)"/>
      <path d="M750.7872 1737.361 L756.7872 1725.361 L744.7872 1725.361 Z" clip-path="url(#clipPath2)" stroke="none"/>
      <text x="456.7453" font-size="24px" y="1652.2266" clip-path="url(#clipPath2)" font-family="sans-serif" stroke="none" xml:space="preserve">No</text>
    </g>
    <g text-rendering="geometricPrecision" stroke-miterlimit="1.45" shape-rendering="geometricPrecision" transform="matrix(1,0,0,1,15,-548)" stroke-linecap="butt">
      <path fill="none" d="M304.5531 1672.7988 L212.1377 1672.7988 L207.7627 1673.4238 L204.6377 1675.2988 L202.7627 1678.4238 L202.1377 1682.7988 L202.1377 2033.6202 L202.7627 2037.9952 L204.6377 2041.1202 L207.7627 2042.9952 L212.1377 2043.6202 L391.6469 2043.6202 L396.0219 2042.9952 L399.1469 2041.1202 L401.0219 2037.9952 L401.6469 2033.6202 L401.6469 1951.9373" clip-path="url(#clipPath2)"/>
      <path d="M401.6469 1940.9373 L395.6469 1952.9373 L407.6469 1952.9373 Z" clip-path="url(#clipPath2)" stroke="none"/>
      <text x="256.1899" font-size="24px" y="1652.2266" clip-path="url(#clipPath2)" font-family="sans-serif" stroke="none" xml:space="preserve">Yes</text>
    </g>
    <g text-rendering="geometricPrecision" stroke-miterlimit="1.45" shape-rendering="geometricPrecision" transform="matrix(1,0,0,1,15,-548)" stroke-linecap="butt">
      <path fill="none" d="M683.2972 2043.6202 L858.5158 2043.6202 L862.8908 2044.2452 L866.0158 2046.1202 L867.8908 2049.2451 L868.5158 2053.6201 L868.5158 2111.9678" clip-path="url(#clipPath2)"/>
      <path d="M868.5158 2122.9678 L874.5158 2110.9678 L862.5158 2110.9678 Z" clip-path="url(#clipPath2)" stroke="none"/>
      <text x="690.289" font-size="24px" y="2023.048" clip-path="url(#clipPath2)" font-family="sans-serif" stroke="none" xml:space="preserve">No</text>
    </g>
    <g text-rendering="geometricPrecision" stroke-miterlimit="1.45" shape-rendering="geometricPrecision" transform="matrix(1,0,0,1,15,-548)" stroke-linecap="butt">
      <path fill="none" d="M795.9076 2195.5637 L620.689 2195.5637 L616.314 2194.9387 L613.189 2193.0637 L611.314 2189.9387 L610.689 2185.5637 L610.689 2127.2041" clip-path="url(#clipPath2)"/>
      <path d="M610.689 2116.2041 L604.689 2128.2041 L616.689 2128.2041 Z" clip-path="url(#clipPath2)" stroke="none"/>
      <text x="758.2361" font-size="24px" y="2174.9915" clip-path="url(#clipPath2)" font-family="sans-serif" stroke="none" xml:space="preserve">No</text>
    </g>
    <g text-rendering="geometricPrecision" stroke-miterlimit="1.45" shape-rendering="geometricPrecision" transform="matrix(1,0,0,1,15,-548)" stroke-linecap="butt">
      <path fill="none" d="M941.1024 2195.5637 L1008.9026 2195.5637 L1013.2776 2196.1887 L1016.4026 2198.0637 L1018.2776 2201.1887 L1018.9026 2205.5637 L1018.9026 2294.1748 L1018.2776 2298.5498 L1016.4026 2301.6748 L1013.2776 2303.5498 L1008.9026 2304.1748 L878.5158 2304.1748 L874.1408 2304.7998 L871.0158 2306.6748 L869.1408 2309.7998 L868.5158 2314.1748 L868.5158 2344.8574" clip-path="url(#clipPath2)"/>
      <path d="M868.5158 2355.8574 L874.5158 2343.8574 L862.5158 2343.8574 Z" clip-path="url(#clipPath2)" stroke="none"/>
      <text x="948.1158" font-size="24px" y="2174.9915" clip-path="url(#clipPath2)" font-family="sans-serif" stroke="none" xml:space="preserve">Yes</text>
    </g>
    <g text-rendering="geometricPrecision" stroke-miterlimit="1.45" shape-rendering="geometricPrecision" transform="matrix(1,0,0,1,15,-548)" stroke-linecap="butt">
      <path fill="none" d="M941.1508 2428.48 L1063.3573 2428.48" clip-path="url(#clipPath2)"/>
      <path d="M1074.3573 2428.48 L1062.3573 2422.48 L1062.3573 2434.48 Z" clip-path="url(#clipPath2)" stroke="none"/>
      <text x="948.1158" font-size="24px" y="2407.9077" clip-path="url(#clipPath2)" font-family="sans-serif" stroke="none" xml:space="preserve">Yes</text>
    </g>
    <g text-rendering="geometricPrecision" stroke-miterlimit="1.45" shape-rendering="geometricPrecision" transform="matrix(1,0,0,1,15,-548)" stroke-linecap="butt">
      <path fill="none" d="M795.9076 2428.48 L620.689 2428.48 L616.314 2427.855 L613.189 2425.98 L611.314 2422.855 L610.689 2418.48 L610.689 2127.2004" clip-path="url(#clipPath2)"/>
      <path d="M610.689 2116.2004 L604.689 2128.2004 L616.689 2128.2004 Z" clip-path="url(#clipPath2)" stroke="none"/>
      <text x="758.2361" font-size="24px" y="2407.9077" clip-path="url(#clipPath2)" font-family="sans-serif" stroke="none" xml:space="preserve">No</text>
    </g>
    <g text-rendering="geometricPrecision" stroke-miterlimit="1.45" shape-rendering="geometricPrecision" transform="matrix(1,0,0,1,15,-548)" stroke-linecap="butt">
      <path fill="none" d="M683.2881 1273.0603 L1117.1735 1273.0603 L1121.5485 1273.6853 L1124.6735 1275.5603 L1126.5485 1278.6853 L1127.1735 1283.0603 L1127.1735 1303.0945" clip-path="url(#clipPath2)"/>
      <path d="M1127.1735 1314.0945 L1133.1735 1302.0945 L1121.1735 1302.0945 Z" clip-path="url(#clipPath2)" stroke="none"/>
      <text x="757.6542" font-size="24px" y="1231.7939" clip-path="url(#clipPath2)" font-family="sans-serif" stroke="none" xml:space="preserve">I have</text>
      <text x="690.289" font-size="24px" y="1261.1963" clip-path="url(#clipPath2)" font-family="sans-serif" stroke="none" xml:space="preserve">a different problem</text>
    </g>
    <g text-rendering="geometricPrecision" stroke-miterlimit="1.45" shape-rendering="geometricPrecision" transform="matrix(1,0,0,1,15,-548)" stroke-linecap="butt">
      <path fill="none" d="M1199.7606 1386.7019 L1410.5302 1386.7019 L1414.9052 1387.3269 L1418.0302 1389.2019 L1419.9052 1392.3269 L1420.5302 1396.7019 L1420.5302 2418.48 L1419.9052 2422.855 L1418.0302 2425.98 L1414.9052 2427.855 L1410.5302 2428.48 L1340.3698 2428.48" clip-path="url(#clipPath2)"/>
      <path d="M1329.3698 2428.48 L1341.3698 2434.48 L1341.3698 2422.48 Z" clip-path="url(#clipPath2)" stroke="none"/>
      <text x="1206.7734" font-size="24px" y="1366.1296" clip-path="url(#clipPath2)" font-family="sans-serif" stroke="none" xml:space="preserve">Yes</text>
    </g>
    <g text-rendering="geometricPrecision" stroke-miterlimit="1.45" shape-rendering="geometricPrecision" transform="matrix(1,0,0,1,15,-548)" stroke-linecap="butt">
      <path fill="none" d="M1054.5347 1386.7019 L945.0956 1386.7019 L940.7212 1387.3269 L937.5978 1389.2019 L935.7256 1392.3269 L935.1045 1396.7019 L935.1317 1427.481" clip-path="url(#clipPath2)"/>
      <path d="M935.1414 1438.481 L941.1308 1426.4757 L929.1308 1426.4862 Z" clip-path="url(#clipPath2)" stroke="none"/>
      <text x="1016.8938" font-size="24px" y="1366.1296" clip-path="url(#clipPath2)" font-family="sans-serif" stroke="none" xml:space="preserve">No</text>
    </g>
    <g text-rendering="geometricPrecision" stroke-miterlimit="1.45" shape-rendering="geometricPrecision" transform="matrix(1,0,0,1,15,-548)" stroke-linecap="butt">
      <path fill="none" d="M1054.5735 1532.9969 L1134.5177 1532.9969" clip-path="url(#clipPath2)"/>
      <path d="M1145.5177 1532.9969 L1133.5177 1526.9969 L1133.5177 1538.9969 Z" clip-path="url(#clipPath2)" stroke="none"/>
    </g>
    <g text-rendering="geometricPrecision" stroke-miterlimit="1.45" shape-rendering="geometricPrecision" transform="matrix(1,0,0,1,15,-548)" stroke-linecap="butt">
      <path fill="none" d="M1072.2672 1866.9703 L1072.2672 1949.7111 L1072.8922 1954.0861 L1074.7672 1957.2111 L1077.8922 1959.0861 L1082.2672 1959.7111 L1237.9585 1959.7111 L1242.3335 1960.3361 L1245.4585 1962.2111 L1247.3335 1965.3361 L1247.9585 1969.7111 L1247.9585 2047.1956" clip-path="url(#clipPath2)"/>
      <path d="M1247.9585 2058.1956 L1253.9585 2046.1956 L1241.9585 2046.1956 Z" clip-path="url(#clipPath2)" stroke="none"/>
    </g>
    <g text-rendering="geometricPrecision" stroke-miterlimit="1.45" shape-rendering="geometricPrecision" transform="matrix(1,0,0,1,15,-548)" stroke-linecap="butt">
      <path fill="none" d="M1201.8635 2371.48 L1201.8635 2285.1423 L1202.4885 2280.7673 L1204.3635 2277.6423 L1207.4885 2275.7673 L1211.8635 2275.1423 L1237.9585 2275.1423 L1242.3335 2274.5173 L1245.4585 2272.6423 L1247.3335 2269.5173 L1247.9585 2265.1423 L1247.9585 2113.3206" clip-path="url(#clipPath2)"/>
      <path d="M1247.9585 2102.3206 L1241.9585 2114.3206 L1253.9585 2114.3206 Z" clip-path="url(#clipPath2)" stroke="none"/>
    </g>
  </g>
</svg>
